
Genre:Sci-Fi
Language:English
 
http://www.imdb.com/title/tt1693872/

Source:720p.HDTV.x264-aAF.Thanks!

Format : MPEG-4
Format profile : Base Media
Codec ID : isom
File size : 1.16 GiB
Duration : 1h 28mn
Overall bit rate : 1 884 Kbps
Movie name : red.mp4

Video
ID : 1
Format : AVC
Format/Info : Advanced Video Codec
Format profile : High@L3.0
Format settings, CABAC : Yes
Format settings, ReFrames : 4 frames
Codec ID : avc1
Codec ID/Info : Advanced Video Coding
Duration : 1h 28mn
Bit rate mode : Variable
Bit rate : 1 500 Kbps
Width : 720 pixels
Height : 400 pixels
Display aspect ratio : 16:9
Frame rate mode : Constant
Frame rate : 23.976 fps
Color space : YUV
Chroma subsampling : 4:2:0
Bit depth : 8 bits
Scan type : Progressive
Bits/(Pixel*Frame) : 0.217
Stream size : 943 MiB (79%)

Audio
ID : 2
Format : AAC
Format/Info : Advanced Audio Codec
Format version : Version 4
Format profile : LC
Codec ID : 40
Duration : 1h 28mn
Bit rate mode : Variable
Bit rate : 384 Kbps
Channel(s) : 6 channels
Channel positions : Front: L C R, Side: L R, LFE
Sampling rate : 48.0 KHz
Stream size : 242 MiB (20%)


Plot:
Follows rebel hero Alec Mason and the Mason family.
 
http://www.pix2links.com/images/62037955657279714991.png
 
http://www.pix2links.com/images/63888574135343785410.png
 
http://www.pix2links.com/images/48116313545739772862.png